<?xml version="1.0" encoding="UTF-8"?>
<svg width="22px" height="22px" viewBox="0 0 22 22" version="1.1" xmlns="http://www.w3.org/2000/svg" xmlns:xlink="http://www.w3.org/1999/xlink">
    <!-- Generator: sketchtool 51.3 (57544) - http://www.bohemiancoding.com/sketch -->
    <title>FC8E5B92-2327-43A8-866D-536BD5BD0136</title>
    <desc>Created with sketchtool.</desc>
    <defs>
        <path d="M11,0 C4.92355769,0 0,4.92355769 0,11 C0,17.0764423 4.92355769,22 11,22 C17.0764423,22 22,17.0764423 22,11 C22,4.92355769 17.0764423,0 11,0 Z M15.7860577,11.8461538 L11.8461538,11.8461538 L11.8461538,15.7860577 C11.8461538,16.2514423 11.4653846,16.6322115 11,16.6322115 C10.7673077,16.6322115 10.5557692,16.5370192 10.4024038,16.3836538 C10.2490385,16.2302885 10.1538462,16.01875 10.1538462,15.7860577 L10.1538462,11.8461538 L6.21394231,11.8461538 C5.98125,11.8461538 5.76971154,11.7509615 5.61634615,11.5975962 C5.46298077,11.4442308 5.36778846,11.2326923 5.36778846,11 C5.36778846,10.5346154 5.74855769,10.1538462 6.21394231,10.1538462 L10.1538462,10.1538462 L10.1538462,6.21394231 C10.1538462,5.74855769 10.5346154,5.36778846 11,5.36778846 C11.4653846,5.36778846 11.8461538,5.74855769 11.8461538,6.21394231 L11.8461538,10.1538462 L15.7860577,10.1538462 C16.2514423,10.1538462 16.6322115,10.5346154 16.6322115,11 C16.6322115,11.4653846 16.2514423,11.8461538 15.7860577,11.8461538 Z" id="path-1"></path>
    </defs>
    <g id="00-Стиль-и-компоненты" stroke="none" stroke-width="1" fill="none" fill-rule="evenodd">
        <g id="Иконки,-контролы" transform="translate(-57.000000, -64.000000)">
            <g id="ico/add-filled" transform="translate(57.000000, 64.000000)">
                <mask id="mask-2" fill="white">
                    <use xlink:href="#path-1"></use>
                </mask>
                <use id="Shape" fill="#000000" fill-rule="nonzero" xlink:href="#path-1"></use>
                <g id="colors/pure-black" mask="url(#mask-2)">
                    <g transform="translate(-1.000000, -1.000000)">
                        <rect id="Background" fill="none" x="0" y="0" width="24" height="24"></rect>
                        <rect id="Black-Color-Copy-9" fill="#000000" fill-rule="evenodd" x="0" y="0" width="24" height="24"></rect>
                    </g>
                </g>
            </g>
        </g>
    </g>
</svg>