<?xml version="1.0" encoding="UTF-8"?>
<svg width="22px" height="22px" viewBox="0 0 22 22" version="1.1" xmlns="http://www.w3.org/2000/svg" xmlns:xlink="http://www.w3.org/1999/xlink"><path d="M11,1.48076923 C13.54375,1.48076923 15.9341346,2.46971154 17.7322115,4.26778846 C19.5302885,6.06586538 20.5192308,8.45625 20.5192308,11 C20.5192308,13.54375 19.5302885,15.9341346 17.7322115,17.7322115 C15.9341346,19.5302885 13.54375,20.5192308 11,20.5192308 C8.45625,20.5192308 6.06586538,19.5302885 4.26778846,17.7322115 C2.46971154,15.9341346 1.48076923,13.54375 1.48076923,11 C1.48076923,8.45625 2.46971154,6.06586538 4.26778846,4.26778846 C6.06586538,2.46971154 8.45625,1.48076923 11,1.48076923 Z M11,0 C4.92355769,0 0,4.92355769 0,11 C0,17.0764423 4.92355769,22 11,22 C17.0764423,22 22,17.0764423 22,11 C22,4.92355769 17.0764423,0 11,0 Z M15.7860577,10.1538462 L11.8461538,10.1538462 L11.8461538,6.21394231 C11.8461538,5.74855769 11.4653846,5.36778846 11,5.36778846 C10.5346154,5.36778846 10.1538462,5.74855769 10.1538462,6.21394231 L10.1538462,10.1538462 L6.21394231,10.1538462 C5.74855769,10.1538462 5.36778846,10.4711538 5.36778846,11 C5.36778846,11.5288462 5.76442308,11.8461538 6.21394231,11.8461538 L10.1538462,11.8461538 L10.1538462,15.7860577 C10.1538462,16.2884615 10.5240385,16.6322115 11,16.6322115 C11.4759615,16.6322115 11.8461538,16.2514423 11.8461538,15.7860577 L11.8461538,11.8461538 L15.7860577,11.8461538 C16.2514423,11.8461538 16.6322115,11.4653846 16.6322115,11 C16.6322115,10.5346154 16.2514423,10.1538462 15.7860577,10.1538462 Z" id="path-1" fill="white"></path></svg>