<?xml version="1.0" encoding="UTF-8"?>
<svg width="22px" height="22px" viewBox="0 0 22 22" version="1.1" xmlns="http://www.w3.org/2000/svg" xmlns:xlink="http://www.w3.org/1999/xlink">
        <path d="M11,22 C17.0764423,22 22,17.0764423 22,11 C22,4.92355769 17.0764423,0 11,0 C4.92355769,0 0,4.92355769 0,11 C0,17.0764423 4.92355769,22 11,22 Z M11,20.3076923 C8.51442308,20.3076923 6.17692308,19.3399038 4.42115385,17.5788462 C2.66009615,15.8230769 1.69230769,13.4855769 1.69230769,11 C1.69230769,8.51442308 2.66009615,6.17692308 4.42115385,4.42115385 C6.17692308,2.66009615 8.51442308,1.69230769 11,1.69230769 C13.4855769,1.69230769 15.8230769,2.66009615 17.5788462,4.42115385 C19.3399038,6.17692308 20.3076923,8.51442308 20.3076923,11 C20.3076923,13.4855769 19.3399038,15.8230769 17.5788462,17.5788462 C15.8230769,19.3399038 13.4855769,20.3076923 11,20.3076923 Z M5.26730769,13.3956731 C4.87067308,12.9990385 4.87067308,12.3485577 5.26730769,11.9519231 L10.3283654,6.90673077 C10.7144231,6.52067308 11.3384615,6.51009615 11.7350962,6.875 L16.7221154,11.8461538 C16.9230769,12.0471154 17.0235577,12.30625 17.0235577,12.5706731 C17.0235577,12.8298077 16.9230769,13.0942308 16.7274038,13.2899038 C16.3307692,13.6865385 15.6855769,13.6918269 15.2836538,13.2899038 L11,9.06971154 L6.71105769,13.4009615 C6.31442308,13.7975962 5.66923077,13.7975962 5.26730769,13.3956731 Z" id="path-1"></path>
</svg>