<?xml version="1.0" encoding="UTF-8"?>
<svg width="22px" height="15px" viewBox="0 0 22 15" version="1.1" xmlns="http://www.w3.org/2000/svg" xmlns:xlink="http://www.w3.org/1999/xlink">
        <path d="M14.0298715,0.280939052 C13.6401528,0.663016162 13.6401528,1.29726416 14.0222299,1.68698282 L18.6682876,6.34068202 L0.985758944,6.34068202 C0.443209448,6.34068202 0,6.78389147 0,7.3340825 C0,7.88427354 0.443209448,8.32748299 0.985758944,8.32748299 L18.6606461,8.32748299 L14.0145884,12.9811822 C13.6325113,13.3709008 13.6401528,13.9975073 14.0222299,14.387226 C14.4119486,14.7693031 15.0309135,14.7693031 15.4206322,14.3795844 L21.7172629,8.03710439 C21.8013199,7.94540588 21.8700938,7.84606583 21.9235846,7.72380116 C21.9770754,7.60153648 22,7.47163026 22,7.34172405 C22,7.08191161 21.90066,6.83738226 21.7172629,6.64634371 L15.4206322,0.303863678 C15.0461966,-0.0934965164 14.4195901,-0.101138059 14.0298715,0.280939052 Z" id="path-1"></path></svg>