<?xml version="1.0" encoding="UTF-8"?>
<svg width="12px" height="20px" viewBox="0 0 12 20" version="1.1" xmlns="http://www.w3.org/2000/svg" xmlns:xlink="http://www.w3.org/1999/xlink">
    <!-- Generator: sketchtool 51.3 (57544) - http://www.bohemiancoding.com/sketch -->
    <title>FFA29D4F-A835-47F5-8616-7E2953B623CA</title>
    <desc>Created with sketchtool.</desc>
    <defs>
        <path d="M7.98809081,9.99627838 L0.419799032,2.4339412 C-0.139933011,1.87420916 -0.139933011,0.969110532 0.419799032,0.415333085 C0.979531076,-0.138444362 1.8846297,-0.138444362 2.44436174,0.415333085 L11.0189803,8.98399702 C11.5608485,9.52586528 11.5727577,10.3952363 11.0606624,10.9549684 L2.45031634,19.5831783 C2.17045032,19.8630443 1.80126535,20 1.43803498,20 C1.07480461,20 0.70561965,19.8630443 0.425753629,19.5831783 C-0.133978415,19.0234462 -0.133978415,18.1183476 0.425753629,17.5645702 L7.98809081,9.99627838 Z" id="path-1"></path>
    </defs>
    <g id="00-Стиль-и-компоненты" stroke="none" stroke-width="1" fill="none" fill-rule="evenodd">
        <g id="Иконки,-контролы" transform="translate(-332.000000, -65.000000)">
            <g id="ico/chevron-right" transform="translate(332.000000, 65.000000)">
                <mask id="mask-2" fill="white">
                    <use xlink:href="#path-1"></use>
                </mask>
                <use id="Shape" fill="#000000" fill-rule="nonzero" xlink:href="#path-1"></use>
                <g id="colors/pure-black" mask="url(#mask-2)">
                    <g transform="translate(-6.000000, -2.000000)">
                        <rect id="Background" fill="none" x="0" y="0" width="24" height="24"></rect>
                        <rect id="Black-Color-Copy-9" fill="#ffffff" fill-rule="evenodd" x="0" y="0" width="24" height="24"></rect>
                    </g>
                </g>
            </g>
        </g>
    </g>
</svg>