<?xml version="1.0" encoding="UTF-8"?>
<svg width="12px" height="20px" viewBox="0 0 12 20" version="1.1" xmlns="http://www.w3.org/2000/svg" xmlns:xlink="http://www.w3.org/1999/xlink">
    <!-- Generator: sketchtool 51.3 (57544) - http://www.bohemiancoding.com/sketch -->
    <title>A4699CC4-32D0-481D-86B6-4AFD911B1DDC</title>
    <desc>Created with sketchtool.</desc>
    <defs>
        <path d="M3.44722236,9.99627838 L11.0095595,17.5645702 C11.5692916,18.1183476 11.5692916,19.0234462 11.0095595,19.5831783 C10.7296935,19.8630443 10.3605085,20 9.99727818,20 C9.63404781,20 9.26486285,19.8630443 8.98499683,19.5831783 L0.374650716,10.9549684 C-0.137444558,10.3952363 -0.125535365,9.52586528 0.416332889,8.98399702 L8.99095142,0.415333085 C9.55068347,-0.138444362 10.4557821,-0.138444362 11.0155141,0.415333085 C11.5752462,0.969110532 11.5752462,1.87420916 11.0155141,2.4339412 L3.44722236,9.99627838 Z" id="path-1"></path>
    </defs>
    <g id="00-Стиль-и-компоненты" stroke="none" stroke-width="1" fill="none" fill-rule="evenodd">
        <g id="Иконки,-контролы" transform="translate(-278.000000, -65.000000)">
            <g id="ico/chevron-left" transform="translate(278.000000, 65.000000)">
                <mask id="mask-2" fill="white">
                    <use xlink:href="#path-1"></use>
                </mask>
                <use id="Shape" fill="#000000" fill-rule="nonzero" xlink:href="#path-1"></use>
                <g id="colors/pure-black" mask="url(#mask-2)">
                    <g transform="translate(-6.000000, -2.000000)">
                        <rect id="Background" fill="none" x="0" y="0" width="24" height="24"></rect>
                        <rect id="Black-Color-Copy-9" fill="#ffffff" fill-rule="evenodd" x="0" y="0" width="24" height="24"></rect>
                    </g>
                </g>
            </g>
        </g>
    </g>
</svg>