<?xml version="1.0" encoding="UTF-8"?>
<svg width="22px" height="15px" viewBox="0 0 22 15" version="1.1" xmlns="http://www.w3.org/2000/svg" xmlns:xlink="http://www.w3.org/1999/xlink"><path d="M10.9657016,0 C7.02628062,0 3.91982183,2.47928731 0.205790646,6.53140312 C-0.0636971047,6.83028953 -0.068596882,7.27616927 0.200890869,7.57505568 C3.38084633,11.088196 6.18351893,14.1113586 10.9657016,14.1113586 C15.6890869,14.1113586 19.2316258,10.3042316 21.7501114,7.54565702 C22.0097996,7.26146993 22.0244989,6.83028953 21.7746102,6.53140312 C19.2071269,3.42004454 15.6547884,0 10.9657016,0 Z M11.1812918,11.4605791 C8.5844098,11.5781737 6.4481069,9.44187082 6.57060134,6.84988864 C6.67349666,4.58619154 8.50601336,2.75367483 10.7697105,2.65077951 C13.3665924,2.53318486 15.5028953,4.66948775 15.3804009,7.26146993 C15.2775056,9.52516704 13.4449889,11.3576837 11.1812918,11.4605791 Z M10.9755011,4.75278396 C10.9755011,4.45879733 11.0293987,4.17951002 11.1273942,3.9247216 C11.0783964,3.9247216 11.0293987,3.91982183 10.9755011,3.91982183 C9.1674833,3.91982183 7.71224944,5.45835189 7.84944321,7.29576837 C7.96703786,8.82939866 9.20178174,10.0641425 10.735412,10.1817372 C12.5728285,10.318931 14.1113586,8.8636971 14.1113586,7.05567929 C14.1113586,6.99198218 14.1064588,6.92828508 14.1064588,6.86458797 C13.8320713,6.98708241 13.5331849,7.05567929 13.2146993,7.05567929 C11.9799555,7.05567929 10.9755011,6.02182628 10.9755011,4.75278396 Z" id="path-1"></path></svg>