<?xml version="1.0" encoding="UTF-8"?>
<svg width="16px" height="16px" viewBox="0 0 16 16" version="1.1" xmlns="http://www.w3.org/2000/svg" xmlns:xlink="http://www.w3.org/1999/xlink">
    <!-- Generator: sketchtool 51.3 (57544) - http://www.bohemiancoding.com/sketch -->
    <title>6324A14C-9471-42FB-B666-1D50248E58F7</title>
    <desc>Created with sketchtool.</desc>
    <defs>
        <path d="M15.7499624,1.68749598 L15.7499624,14.0624665 C15.7499624,14.5312152 15.5859002,14.9296521 15.2577761,15.2577761 C14.9296521,15.5859002 14.5312152,15.7499624 14.0624665,15.7499624 L11.0741923,15.7499624 L11.0741923,9.52732104 L13.1835623,9.52732104 L13.4999678,7.13670173 L11.0741923,7.13670173 L11.0741923,5.62498659 C11.0741923,5.2499873 11.1445047,4.96873797 11.2851293,4.7812386 C11.4726287,4.5703016 11.7890342,4.4648331 12.2343458,4.4648331 L13.4999678,4.4648331 L13.4999678,2.35546313 C13.0077815,2.2851508 12.3984081,2.24999464 11.6718472,2.24999464 C10.7343492,2.24999464 9.99021074,2.52538443 9.43943062,3.07616454 C8.8886505,3.62694466 8.61326071,4.39452077 8.61326071,5.37889343 L8.61326071,7.13670173 L6.46873458,7.13670173 L6.46873458,9.52732104 L8.61326071,9.52732104 L8.61326071,15.7499624 L1.68749598,15.7499624 C1.21874727,15.7499624 0.820310365,15.5859002 0.492186327,15.2577761 C0.164062288,14.9296521 0,14.5312152 0,14.0624665 L0,1.68749598 C0,1.21874727 0.164062288,0.820310365 0.492186327,0.492186327 C0.820310365,0.164062288 1.21874727,0 1.68749598,0 L14.0624665,0 C14.5312152,0 14.9296521,0.164062288 15.2577761,0.492186327 C15.5859002,0.820310365 15.7499624,1.21874727 15.7499624,1.68749598 Z" id="path-1"></path>
    </defs>
    <g id="00-Стиль-и-компоненты" stroke="none" stroke-width="1" fill="none" fill-rule="evenodd">
        <g id="Иконки,-контролы" transform="translate(-114.000000, -134.000000)">
            <g id="ico/fb" transform="translate(114.000000, 134.000000)">
                <mask id="mask-2" fill="white">
                    <use xlink:href="#path-1"></use>
                </mask>
                <use id="" fill="#000000" xlink:href="#path-1"></use>
                <g id="colors/pure-black" mask="url(#mask-2)">
                    <g transform="translate(-4.000000, -4.000000)">
                        <rect id="Background" fill="none" x="0" y="0" width="24" height="24"></rect>
                        <rect id="Black-Color-Copy-9" fill="#000000" fill-rule="evenodd" x="0" y="0" width="24" height="24"></rect>
                    </g>
                </g>
            </g>
        </g>
    </g>
</svg>