<?xml version="1.0" encoding="UTF-8"?>
<svg width="24px" height="16px" viewBox="0 0 24 16" version="1.1" xmlns="http://www.w3.org/2000/svg" xmlns:xlink="http://www.w3.org/1999/xlink">
    <!-- Generator: sketchtool 51.3 (57544) - http://www.bohemiancoding.com/sketch -->
    <title>5E4A3D3C-FA42-4E4C-8A24-0E1DE4D9CA5D</title>
    <desc>Created with sketchtool.</desc>
    <defs>
        <path d="M5.81333333,9.38666667 C5.81333333,9.38666667 7.088,9.344 7.59466667,8.89066667 C6.768,7.63733333 7.216,6.176 7.04533333,4.81066667 C6.87466667,3.45066667 6.10133333,2.63466667 4.55466667,2.63466667 L4.53333333,2.63466667 C3.04,2.63466667 2.23466667,3.44533333 2.064,4.81066667 C1.89333333,6.17066667 2.368,7.79733333 1.52,8.89066667 C2.02666667,9.34933333 3.30666667,9.33333333 3.30666667,9.33333333 C3.30666667,9.33333333 3.36,10.1013333 3.25333333,10.2293333 C3.14666667,10.3573333 2.832,10.48 2.61333333,10.5226667 C2.144,10.624 1.648,10.7626667 1.232,10.9066667 C0.816,11.0506667 0.0266666667,11.824 0.0266666667,12.8906667 L4.30933333,12.8906667 C4.42666667,12.464 5.232,11.7013333 6.016,11.3013333 C6.496,11.056 6.97066667,11.072 7.33333333,11.024 C7.33333333,11.024 7.536,10.704 6.86933333,10.5813333 C6.86933333,10.5813333 5.952,10.352 5.84533333,10.224 C5.744,10.1066667 5.81333333,9.38666667 5.81333333,9.38666667 Z M18.1866667,9.38666667 C18.1866667,9.38666667 16.912,9.344 16.4053333,8.89066667 C17.232,7.63733333 16.784,6.176 16.9546667,4.81066667 C17.1253333,3.45066667 17.8986667,2.63466667 19.4453333,2.63466667 L19.4666667,2.63466667 C20.96,2.63466667 21.7653333,3.44533333 21.936,4.81066667 C22.1066667,6.17066667 21.632,7.79733333 22.48,8.89066667 C21.9733333,9.34933333 20.6933333,9.33333333 20.6933333,9.33333333 C20.6933333,9.33333333 20.64,10.1013333 20.7466667,10.2293333 C20.8533333,10.3573333 21.168,10.48 21.3866667,10.5226667 C21.856,10.624 22.352,10.7626667 22.768,10.9066667 C23.184,11.0506667 23.9733333,11.824 23.9733333,12.8906667 L19.6906667,12.8906667 C19.5733333,12.464 18.768,11.7013333 17.984,11.3013333 C17.504,11.056 17.0293333,11.072 16.6666667,11.024 C16.6666667,11.024 16.464,10.704 17.1306667,10.5813333 C17.1306667,10.5813333 18.048,10.352 18.1546667,10.224 C18.256,10.1066667 18.1866667,9.38666667 18.1866667,9.38666667 Z M16.9653333,11.984 C17.5626667,12.1973333 19.408,13.168 19.4026782,15.5733333 L4.56,15.5733333 C4.56,13.1733333 6.40533333,12.2026667 7.00266667,11.9893333 C7.60533333,11.776 8.58133333,11.7546667 9.008,11.5893333 C9.30666667,11.4773333 9.78133333,11.3493333 9.936,11.1626667 C10.0906667,10.976 10.0906667,9.64266667 10.0906667,9.64266667 C10.0906667,9.64266667 9.71733333,9.29066667 9.56266667,8.896 C9.408,8.50133333 9.30666667,7.42933333 9.30666667,7.42933333 C9.30666667,7.42933333 8.95466667,7.584 8.816,6.87466667 C8.69333333,6.26666667 8.46933333,5.94666667 8.53333333,5.49866667 C8.592,5.05066667 8.84266667,5.15733333 8.84266667,5.15733333 C8.84266667,5.15733333 8.53866667,4.704 8.53866667,3.16266667 C8.53866667,1.57866667 9.74933333,0.0106666667 11.9893333,0.0106666667 C14.2346667,0.0106666667 15.4346667,1.57333333 15.4346667,3.16266667 C15.4346667,4.704 15.1253333,5.15733333 15.1253333,5.15733333 C15.1253333,5.15733333 15.3706667,5.05066667 15.4346667,5.49866667 C15.4933333,5.94666667 15.2693333,6.26666667 15.152,6.87466667 C15.0133333,7.57866667 14.6613333,7.42933333 14.6613333,7.42933333 C14.6613333,7.42933333 14.56,8.50666667 14.4053333,8.896 C14.2506667,9.29066667 13.8773333,9.64266667 13.8773333,9.64266667 C13.8773333,9.64266667 13.8773333,10.976 14.032,11.1626667 C14.1866667,11.3493333 14.6613333,11.4773333 14.96,11.5946667 C15.392,11.76 16.368,11.7706667 16.9653333,11.984 Z" id="path-1"></path>
    </defs>
    <g id="00-Стиль-и-компоненты" stroke="none" stroke-width="1" fill="none" fill-rule="evenodd">
        <g id="Иконки,-контролы" transform="translate(-487.000000, -67.000000)">
            <g id="ico/go" transform="translate(487.000000, 67.000000)">
                <mask id="mask-2" fill="white">
                    <use xlink:href="#path-1"></use>
                </mask>
                <use id="Shape" fill="#000000" fill-rule="nonzero" xlink:href="#path-1"></use>
                <g id="colors/pure-black" mask="url(#mask-2)">
                    <g transform="translate(0.000000, -4.000000)">
                        <rect id="Background" fill="none" x="0" y="0" width="24" height="24"></rect>
                        <rect id="Black-Color-Copy-9" fill="#000000" fill-rule="evenodd" x="0" y="0" width="24" height="24"></rect>
                    </g>
                </g>
            </g>
        </g>
    </g>
</svg>