<?xml version="1.0" encoding="UTF-8"?>
<svg width="24px" height="16px" viewBox="0 0 24 16" version="1.1" xmlns="http://www.w3.org/2000/svg" xmlns:xlink="http://www.w3.org/1999/xlink">
        <path d="M14.915625,10.4640625 L14.840625,10.1359375 L7.5,10.1359375 L7.5,13.140625 L11.7515625,13.140625 C11.3109375,15.25 9.4828125,16.121875 7.809375,16.121875 C6.590625,16.121875 5.45625,15.75625 4.6078125,14.9359375 C3.7359375,14.0875 3.253125,12.915625 3.253125,11.6359375 C3.253125,10.365625 3.7125,9.2078125 4.546875,8.3734375 C5.3765625,7.54375 6.515625,7.1828125 7.7671875,7.1828125 C9.196875,7.1828125 10.10625,7.8296875 10.490625,8.171875 L12.740625,5.9359375 C12.1078125,5.3875 10.3828125,4 7.6921875,4 C5.615625,4 3.628125,4.7875 2.175,6.240625 C0.7453125,7.6703125 0,9.728125 0,11.640625 C0,13.553125 0.703125,15.5125 2.090625,16.9515625 C3.5765625,18.484375 5.68125,19.28125 7.8515625,19.28125 C9.825,19.28125 11.690625,18.5078125 13.021875,17.1109375 C14.334375,15.7328125 15.009375,13.825 15.009375,11.828125 C15.0046875,10.984375 14.9203125,10.4828125 14.915625,10.4640625 Z M24,10.140625 L21.328125,10.140625 L21.328125,7.46875 L19.40625,7.46875 L19.40625,10.140625 L16.734375,10.140625 L16.734375,12.0625 L19.40625,12.0625 L19.40625,14.734375 L21.328125,14.734375 L21.328125,12.0625 L24,12.0625 L24,10.140625 Z" id="path-1"></path>
</svg>