<?xml version="1.0" encoding="UTF-8"?>
<svg width="22px" height="22px" viewBox="0 0 22 22" version="1.1" xmlns="http://www.w3.org/2000/svg" xmlns:xlink="http://www.w3.org/1999/xlink">
<path d="M11,1.48076923 C13.54375,1.48076923 15.9341346,2.46971154 17.7322115,4.26778846 C19.5302885,6.06586538 20.5192308,8.45625 20.5192308,11 C20.5192308,13.54375 19.5302885,15.9341346 17.7322115,17.7322115 C15.9341346,19.5302885 13.54375,20.5192308 11,20.5192308 C8.45625,20.5192308 6.06586538,19.5302885 4.26778846,17.7322115 C2.46971154,15.9341346 1.48076923,13.54375 1.48076923,11 C1.48076923,8.45625 2.46971154,6.06586538 4.26778846,4.26778846 C6.06586538,2.46971154 8.45625,1.48076923 11,1.48076923 Z M11,0 C4.92355769,0 0,4.92355769 0,11 C0,17.0764423 4.92355769,22 11,22 C17.0764423,22 22,17.0764423 22,11 C22,4.92355769 17.0764423,0 11,0 Z M11.0370192,5.92307692 C13.0201923,5.92307692 14.3846154,7.02307692 14.3846154,8.60432692 C14.3846154,9.65144231 13.8769231,10.3759615 12.8985577,10.9524038 C11.9783654,11.4865385 11.6663462,11.8778846 11.6663462,12.5548077 L11.6663462,12.9725962 L9.83125,12.9725962 L9.81538462,12.5177885 C9.72548077,11.4283654 10.10625,10.7514423 11.0634615,10.1908654 C11.9572115,9.65673077 12.3326923,9.31826923 12.3326923,8.6625 C12.3326923,8.00673077 11.6980769,7.52548077 10.9100962,7.52548077 C10.1115385,7.52548077 9.53509615,8.04375 9.49278846,8.82644231 L7.61538462,8.82644231 C7.65240385,7.12355769 8.91105769,5.92307692 11.0370192,5.92307692 Z M9.64615385,14.9875 C9.64615385,14.3793269 10.1538462,13.8980769 10.7778846,13.8980769 C11.4072115,13.8980769 11.9149038,14.3740385 11.9149038,14.9875 C11.9149038,15.6009615 11.4072115,16.0769231 10.7778846,16.0769231 C10.1485577,16.0769231 9.64615385,15.6009615 9.64615385,14.9875 Z" id="path-1" fill="white"></path>
</svg>