<?xml version="1.0" encoding="UTF-8"?>
<svg width="18px" height="18px" viewBox="0 0 18 18" version="1.1" xmlns="http://www.w3.org/2000/svg" xmlns:xlink="http://www.w3.org/1999/xlink">
    <!-- Generator: sketchtool 51.3 (57544) - http://www.bohemiancoding.com/sketch -->
    <title>6FF196C5-B763-4578-80AF-B5876249FB80</title>
    <desc>Created with sketchtool.</desc>
    <defs>
        <path d="M8.785,4.48984375 C9.59552103,4.48984375 10.3472133,4.69247416 11.0400781,5.09773438 C11.7329429,5.50299459 12.2820054,6.05205709 12.6872656,6.74492188 C13.0925258,7.43778666 13.2951562,8.18947897 13.2951562,9 C13.2951562,9.81052103 13.0925258,10.5622133 12.6872656,11.2550781 C12.2820054,11.9479429 11.7329429,12.4970054 11.0400781,12.9022656 C10.3472133,13.3075258 9.59552103,13.5101563 8.785,13.5101563 C7.97447897,13.5101563 7.22278666,13.3075258 6.52992188,12.9022656 C5.83705709,12.4970054 5.28799459,11.9479429 4.88273438,11.2550781 C4.47747416,10.5622133 4.27484375,9.81052103 4.27484375,9 C4.27484375,8.18947897 4.47747416,7.43778666 4.88273438,6.74492188 C5.28799459,6.05205709 5.83705709,5.50299459 6.52992188,5.09773438 C7.22278666,4.69247416 7.97447897,4.48984375 8.785,4.48984375 Z M8.785,11.9414063 C9.59552103,11.9414063 10.2883852,11.6538023 10.8635937,11.0785938 C11.4388023,10.5033852 11.7264062,9.81052103 11.7264062,9 C11.7264062,8.18947897 11.4388023,7.49661478 10.8635937,6.92140625 C10.2883852,6.34619772 9.59552103,6.05859375 8.785,6.05859375 C7.97447897,6.05859375 7.28161478,6.34619772 6.70640625,6.92140625 C6.13119772,7.49661478 5.84359375,8.18947897 5.84359375,9 C5.84359375,9.81052103 6.13119772,10.5033852 6.70640625,11.0785938 C7.28161478,11.6538023 7.97447897,11.9414063 8.785,11.9414063 Z M14.5501563,4.29375 C14.5240102,4.58135397 14.4128906,4.82973978 14.2167969,5.03890625 C14.0207031,5.24807272 13.778854,5.35265625 13.49125,5.35265625 C13.203646,5.35265625 12.9552602,5.24807272 12.7460938,5.03890625 C12.5369273,4.82973978 12.4323437,4.58135397 12.4323437,4.29375 C12.4323437,4.00614603 12.5369273,3.75776022 12.7460938,3.54859375 C12.9552602,3.33942728 13.203646,3.23484375 13.49125,3.23484375 C13.778854,3.23484375 14.0272398,3.33942728 14.2364063,3.54859375 C14.4455727,3.75776022 14.5501563,4.00614603 14.5501563,4.29375 Z M17.5307813,5.35265625 C17.5569273,6.08473978 17.57,7.30052103 17.57,9 C17.57,10.699479 17.5503906,11.9217969 17.5111719,12.6669531 C17.4719531,13.4121094 17.3608335,14.0592188 17.1778125,14.6082813 C16.9425,15.2619273 16.5829946,15.8305992 16.0992969,16.3142969 C15.6155992,16.7979946 15.0469273,17.1575 14.3932813,17.3928125 C13.8442188,17.5758335 13.1971094,17.6869531 12.4519531,17.7261719 C11.7067969,17.7653906 10.484479,17.785 8.785,17.785 C7.08552103,17.785 5.86320313,17.7653906 5.11804688,17.7261719 C4.37289063,17.6869531 3.72578125,17.5627602 3.17671875,17.3535938 C2.52307272,17.1444273 1.95440084,16.7979946 1.47070312,16.3142969 C0.987005408,15.8305992 0.6275,15.2619273 0.3921875,14.6082813 C0.209166467,14.0592188 0.098046875,13.4121094 0.058828125,12.6669531 C0.019609375,11.9217969 0,10.699479 0,9 C0,7.30052103 0.019609375,6.07820313 0.058828125,5.33304688 C0.098046875,4.58789063 0.209166467,3.94078125 0.3921875,3.39171875 C0.6275,2.73807272 0.987005408,2.16940084 1.47070312,1.68570313 C1.95440084,1.20200541 2.52307272,0.8425 3.17671875,0.6071875 C3.72578125,0.424166467 4.37289063,0.313046875 5.11804688,0.273828125 C5.86320313,0.234609375 7.08552103,0.215 8.785,0.215 C10.484479,0.215 11.7067969,0.234609375 12.4519531,0.273828125 C13.1971094,0.313046875 13.8442188,0.424166467 14.3932813,0.6071875 C15.0469273,0.8425 15.6155992,1.20200541 16.0992969,1.68570313 C16.5829946,2.16940084 16.9425,2.73807272 17.1778125,3.39171875 C17.3608335,3.94078125 17.4784898,4.59442728 17.5307813,5.35265625 Z" id="path-1"></path>
    </defs>
    <g id="00-Стиль-и-компоненты" stroke="none" stroke-width="1" fill="none" fill-rule="evenodd">
        <g id="Иконки,-контролы" transform="translate(-221.000000, -133.000000)">
            <g id="ico/insta" transform="translate(221.000000, 133.000000)">
                <mask id="mask-2" fill="white">
                    <use xlink:href="#path-1"></use>
                </mask>
                <use id="" fill="#000000" xlink:href="#path-1"></use>
                <g id="colors/pure-black" mask="url(#mask-2)">
                    <g transform="translate(-3.000000, -3.000000)">
                        <rect id="Background" fill="none" x="0" y="0" width="24" height="24"></rect>
                        <rect id="Black-Color-Copy-9" fill="#000000" fill-rule="evenodd" x="0" y="0" width="24" height="24"></rect>
                    </g>
                </g>
            </g>
        </g>
    </g>
</svg>