<?xml version="1.0" encoding="UTF-8"?>
<svg width="20px" height="20px" viewBox="0 0 20 20" version="1.1" xmlns="http://www.w3.org/2000/svg" xmlns:xlink="http://www.w3.org/1999/xlink">
    <!-- Generator: sketchtool 51.3 (57544) - http://www.bohemiancoding.com/sketch -->
    <title>32FBA344-736F-4595-9967-AA013EA77A4B</title>
    <desc>Created with sketchtool.</desc>
    <defs>
        <path d="M10.0000182,0.833333333 C12.4895172,0.833333333 12.8016825,0.843885604 13.7794049,0.888496239 C14.7550897,0.932997712 15.4214474,1.08797054 16.004515,1.31458966 C16.6073044,1.54881368 17.1185073,1.86225251 17.6281456,2.37185441 C18.1377475,2.88149271 18.4511863,3.39269565 18.6854467,3.99548502 C18.9120295,4.57855256 19.0670023,5.24491027 19.1115038,6.22059506 C19.1561144,7.19831752 19.1666667,7.5104828 19.1666667,10.0000182 C19.1666667,12.4895172 19.1561144,12.8016825 19.1115038,13.7794049 C19.0670023,14.7550897 18.9120295,15.4214474 18.6854467,16.004515 C18.4511863,16.6073044 18.1377475,17.1185073 17.6281456,17.6281456 C17.1185073,18.1377475 16.6073044,18.4511863 16.004515,18.6854467 C15.4214474,18.9120295 14.7550897,19.0670023 13.7794049,19.1115038 C12.8016825,19.1561144 12.4895172,19.1666667 10.0000182,19.1666667 C7.5104828,19.1666667 7.19831752,19.1561144 6.22059506,19.1115038 C5.24491027,19.0670023 4.57855256,18.9120295 3.99548502,18.6854467 C3.39269565,18.4511863 2.88149271,18.1377475 2.37185441,17.6281456 C1.86225251,17.1185073 1.54881368,16.6073044 1.31458966,16.004515 C1.08797054,15.4214474 0.932997712,14.7550897 0.888496239,13.7794049 C0.843885604,12.8016825 0.833333333,12.4895172 0.833333333,10.0000182 C0.833333333,7.5104828 0.843885604,7.19831752 0.888496239,6.22059506 C0.932997712,5.24491027 1.08797054,4.57855256 1.31458966,3.99548502 C1.54881368,3.39269565 1.86225251,2.88149271 2.37185441,2.37185441 C2.88149271,1.86225251 3.39269565,1.54881368 3.99548502,1.31458966 C4.57855256,1.08797054 5.24491027,0.932997712 6.22059506,0.888496239 C7.19831752,0.843885604 7.5104828,0.833333333 10.0000182,0.833333333 Z M10.0000182,2.48498203 C7.55240079,2.48498203 7.26246805,2.49433353 6.29588005,2.53843474 C5.4021391,2.57918834 4.91677103,2.72852117 4.59376238,2.8540568 C4.165886,3.02034604 3.86052511,3.21898344 3.53977247,3.53977247 C3.21898344,3.86052511 3.02034604,4.165886 2.8540568,4.59376238 C2.72852117,4.91677103 2.57918834,5.4021391 2.53843474,6.29588005 C2.49433353,7.26246805 2.48498203,7.55240079 2.48498203,10.0000182 C2.48498203,12.4475992 2.49433353,12.7375319 2.53843474,13.70412 C2.57918834,14.5978609 2.72852117,15.083229 2.8540568,15.4062376 C3.02034604,15.834114 3.21901982,16.1394749 3.53977247,16.4602275 C3.86052511,16.7810166 4.165886,16.979654 4.59376238,17.1459432 C4.91677103,17.2714788 5.4021391,17.4208117 6.29588005,17.4615653 C7.26235889,17.5056665 7.55221885,17.515018 10.0000182,17.515018 C12.4477811,17.515018 12.7376775,17.5056665 13.70412,17.4615653 C14.5978609,17.4208117 15.083229,17.2714788 15.4062376,17.1459432 C15.834114,16.979654 16.1394749,16.7810166 16.4602275,16.4602275 C16.7810166,16.1394749 16.979654,15.834114 17.1459432,15.4062376 C17.2714788,15.083229 17.4208117,14.5978609 17.4615653,13.70412 C17.5056665,12.7375319 17.515018,12.4475992 17.515018,10.0000182 C17.515018,7.55240079 17.5056665,7.26246805 17.4615653,6.29588005 C17.4208117,5.4021391 17.2714788,4.91677103 17.1459432,4.59376238 C16.979654,4.165886 16.7810166,3.86052511 16.4602275,3.53977247 C16.1394749,3.21898344 15.834114,3.02034604 15.4062376,2.8540568 C15.083229,2.72852117 14.5978609,2.57918834 13.70412,2.53843474 C12.7375319,2.49433353 12.4475992,2.48498203 10.0000182,2.48498203 Z M10.0000182,5.29279574 C12.5997338,5.29279574 14.7072043,7.40026616 14.7072043,10.0000182 C14.7072043,12.5997338 12.5997338,14.7072043 10.0000182,14.7072043 C7.40026616,14.7072043 5.29279574,12.5997338 5.29279574,10.0000182 C5.29279574,7.40026616 7.40026616,5.29279574 10.0000182,5.29279574 Z M10.0000182,13.0555556 C11.6875446,13.0555556 13.0555556,11.6875446 13.0555556,10.0000182 C13.0555556,8.31245538 11.6875446,6.94444444 10.0000182,6.94444444 C8.31245538,6.94444444 6.94444444,8.31245538 6.94444444,10.0000182 C6.94444444,11.6875446 8.31245538,13.0555556 10.0000182,13.0555556 Z M15.9931986,5.10682107 C15.9931986,5.71434077 15.5006986,6.20680433 14.8931789,6.20680433 C14.2856956,6.20680433 13.7931957,5.71434077 13.7931957,5.10682107 C13.7931957,4.49930137 14.2856956,4.00680142 14.8931789,4.00680142 C15.5006986,4.00680142 15.9931986,4.49930137 15.9931986,5.10682107 Z" id="path-1"></path>
    </defs>
    <g id="01-home" stroke="none" stroke-width="1" fill="none" fill-rule="evenodd">
        <g id="01.01.-Главная" transform="translate(-1316.000000, -7701.000000)">
            <g id="tying/footer-desktop" transform="translate(63.000000, 7653.000000)">
                <g id="Group-9">
                    <g id="logo">
                        <g id="Group-4" transform="translate(1181.000000, 48.000000)">
                            <g id="icons/24-ss_vk-b-copy-2" transform="translate(72.000000, 0.000000)">
                                <rect id="Background" x="0" y="0" width="20" height="20"></rect>
                                <rect id="bound" x="0" y="0" width="20" height="20"></rect>
                                <mask id="mask-2" fill="white">
                                    <use xlink:href="#path-1"></use>
                                </mask>
                                <use id="Instagram" fill="#141414" xlink:href="#path-1"></use>
                                <g id="colors/black" mask="url(#mask-2)">
                                    <rect id="Background" x="0" y="0" width="20" height="20"></rect>
                                    <rect id="Black-Color-Copy-9" fill="#FFFFFF" x="0" y="0" width="20" height="20"></rect>
                                </g>
                            </g>
                        </g>
                    </g>
                </g>
            </g>
        </g>
    </g>
</svg>