<?xml version="1.0" encoding="UTF-8"?>
<svg width="18px" height="20px" viewBox="0 0 18 20" version="1.1" xmlns="http://www.w3.org/2000/svg" xmlns:xlink="http://www.w3.org/1999/xlink">
    <!-- Generator: sketchtool 51.3 (57544) - http://www.bohemiancoding.com/sketch -->
    <title>4421D2EC-172A-4095-8229-F57E7D258C9A</title>
    <desc>Created with sketchtool.</desc>
    <defs>
        <path d="M17.2167796,15.9786347 C17.5685253,15.6831683 18,15.2235539 18,14.5059927 C18,13.8634706 17.7326733,13.4366858 17.4887962,13.1412194 C17.4606566,13.0849401 17.4372069,13.0333507 17.4137572,12.9817613 L17.4043773,12.930172 C17.3715477,12.766024 17.4043773,12.597186 17.4981761,12.4611777 C17.6576342,12.2266806 17.7701928,11.8843147 17.7701928,11.2558624 C17.7701928,10.7118291 17.5450756,10.392913 17.3152684,10.1677957 C17.1089109,9.96612819 17.0291819,9.58155289 17.1229807,9.30953622 C17.348098,8.65763418 17.1323606,7.9775925 16.7384054,7.53673788 C16.2459614,6.98332465 15.7863471,6.91766545 14.562272,6.98801459 C13.7180823,7.03960396 11.9593538,7.31162064 10.800938,7.4945284 C10.3272538,7.56956748 9.91453882,7.63522668 9.78791037,7.64460657 C9.19228765,7.70557582 9.07503908,7.64460657 9.01875977,7.41479937 C8.99531006,7.31631058 9.10786868,7.09119333 9.24856696,6.80510683 C9.43616467,6.42522147 9.69411152,5.90463783 9.92860865,5.12610735 C10.4022929,3.56904638 10.3507035,1.88066701 9.8019802,0.895779052 C9.54403335,0.431474726 9.10786868,0 8.56852527,0 C8.02918187,0 7.47576863,0.112558624 7.26003127,0.370505472 C7.10057322,0.558103179 7.15216258,0.914538822 6.96925482,1.62741011 C6.8238666,2.208963 6.64095883,3.0766024 6.4064617,3.59718603 C6.054716,4.37571652 4.54455446,5.71235018 3.73319437,6.42991141 C3.54090672,6.59874935 3.37675873,6.74413757 3.25951016,6.8566962 C2.85148515,7.23658155 2.43408025,7.8462741 2.06357478,8.39030745 C1.81031787,8.75612298 1.57582074,9.10317874 1.42105263,9.25794685 C1.0880667,9.59093278 0.642522147,9.7691506 0.375195414,9.7691506 C0.168837936,9.7691506 0,9.93798854 0,10.144346 L0,17.6248046 C0,17.8405419 0.173527879,18.0140698 0.389265242,18.0140698 C2.05419489,18.0140698 2.75768629,18.2860865 3.50338718,18.5674831 C4.07556019,18.7879104 4.67118291,19.0130276 5.67952058,19.1349661 C7.19906201,19.3225638 9.15945805,19.5148515 10.960396,19.5148515 C11.9171443,19.5148515 12.8316832,19.4210526 13.6149036,19.3319437 C15.0687858,19.1631058 16.6258468,18.8254299 17.1417405,17.5966649 C17.3340281,17.1417405 17.2449192,16.771235 17.1182908,16.4851485 C17.099531,16.447629 17.0854612,16.4054195 17.0807712,16.36321 C17.0526316,16.2084419 17.1089109,16.0677436 17.2167796,15.9786347 Z" id="path-1"></path>
    </defs>
    <g id="00-Стиль-и-компоненты" stroke="none" stroke-width="1" fill="none" fill-rule="evenodd">
        <g id="Иконки,-контролы" transform="translate(-597.000000, -64.000000)">
            <g id="ico/like" transform="translate(597.000000, 64.000000)">
                <mask id="mask-2" fill="white">
                    <use xlink:href="#path-1"></use>
                </mask>
                <use id="Shape" fill="#000000" fill-rule="nonzero" xlink:href="#path-1"></use>
                <g id="colors/pure-black" mask="url(#mask-2)">
                    <g transform="translate(-3.000000, -1.000000)">
                        <rect id="Background" fill="none" x="0" y="0" width="24" height="24"></rect>
                        <rect id="Black-Color-Copy-9" fill="#000000" fill-rule="evenodd" x="0" y="0" width="24" height="24"></rect>
                    </g>
                </g>
            </g>
        </g>
    </g>
</svg>