<?xml version="1.0" encoding="UTF-8"?>
<svg width="22px" height="17px" viewBox="0 0 22 17" version="1.1" xmlns="http://www.w3.org/2000/svg" xmlns:xlink="http://www.w3.org/1999/xlink">
    <!-- Generator: sketchtool 51.3 (57544) - http://www.bohemiancoding.com/sketch -->
    <title>A6A05D41-208A-49A4-802F-5DD984955485</title>
    <desc>Created with sketchtool.</desc>
    <defs>
        <path d="M11,10.5634615 C10.2173077,10.5634615 9.48221154,10.2230769 8.9375,9.61730769 L0.639903846,0.403846154 C0.925480769,0.15 1.29038462,0 1.68701923,0 L20.3182692,0 C20.7149038,0 21.0745192,0.15 21.3653846,0.403846154 L13.0677885,9.61730769 C12.5177885,10.2288462 11.7826923,10.5634615 11,10.5634615 Z M21.8201923,2.03653846 C21.8836538,1.96730769 22,2.01346154 22,2.11730769 L22,14.7692308 C22,15.7846154 21.2384615,16.6153846 20.3076923,16.6153846 L1.69230769,16.6153846 C0.761538462,16.6153846 0,15.7846154 0,14.7692308 L0,2.11730769 C0,2.01346154 0.111057692,1.96153846 0.179807692,2.03653846 L5.87548077,8.35961538 C5.9125,8.40576923 5.9125,8.475 5.87548077,8.52115385 L1.89326923,13.1480769 C1.62355769,13.4423077 1.62355769,13.9153846 1.89326923,14.2096154 C2.02548077,14.3538462 2.20528846,14.4288462 2.37980769,14.4288462 C2.55432692,14.4288462 2.73413462,14.3538462 2.86634615,14.2096154 L6.83269231,9.6 C6.875,9.55384615 6.94375,9.55384615 6.98605769,9.6 L7.91682692,10.6326923 C8.73653846,11.5384615 9.84711538,12.075 11.0158654,12.0692308 C12.16875,12.0634615 13.2423077,11.5673077 14.0514423,10.6730769 L15.0192308,9.6 C15.0615385,9.55384615 15.1302885,9.55384615 15.1725962,9.6 L19.1389423,14.2096154 C19.2711538,14.3538462 19.4509615,14.4288462 19.6254808,14.4288462 C19.8,14.4288462 19.9798077,14.3538462 20.1120192,14.2096154 C20.3817308,13.9153846 20.3817308,13.4423077 20.1120192,13.1480769 L16.1298077,8.52115385 C16.0875,8.475 16.0875,8.40576923 16.1298077,8.35961538 L21.8201923,2.03653846 Z" id="path-1"></path>
    </defs>
    <g id="00-Стиль-и-компоненты" stroke="none" stroke-width="1" fill="none" fill-rule="evenodd">
        <g id="Иконки,-контролы" transform="translate(-649.000000, -67.000000)">
            <g id="ico/mail" transform="translate(649.000000, 67.000000)">
                <mask id="mask-2" fill="white">
                    <use xlink:href="#path-1"></use>
                </mask>
                <use id="Shape" fill="#000000" fill-rule="nonzero" xlink:href="#path-1"></use>
                <g id="colors/pure-black" mask="url(#mask-2)">
                    <g transform="translate(-1.000000, -4.000000)">
                        <rect id="Background" fill="none" x="0" y="0" width="24" height="24"></rect>
                        <rect id="Black-Color-Copy-9" fill="#000000" fill-rule="evenodd" x="0" y="0" width="24" height="24"></rect>
                    </g>
                </g>
            </g>
        </g>
    </g>
</svg>