<?xml version="1.0" encoding="UTF-8"?>
<svg width="22px" height="21px" viewBox="0 0 22 21" version="1.1" xmlns="http://www.w3.org/2000/svg" xmlns:xlink="http://www.w3.org/1999/xlink">
    <!-- Generator: sketchtool 51.3 (57544) - http://www.bohemiancoding.com/sketch -->
    <title>64C329A5-259D-4523-82DA-9DCF70B4319A</title>
    <desc>Created with sketchtool.</desc>
    <defs>
        <path d="M21.1651786,7.07142857 L13.9415179,7.07142857 L11.7464286,0.520535714 C11.6383929,0.201339286 11.3388393,0 11,0 C10.6611607,0 10.3616071,0.201339286 10.2535714,0.520535714 L8.05848214,7.07142857 L0.785714286,7.07142857 C0.353571429,7.07142857 0,7.425 0,7.85714286 C0,7.90133929 0.00491071429,7.95044643 0.0147321429,7.98973214 C0.0245535714,8.16160714 0.103125,8.353125 0.34375,8.54464286 L6.28080357,12.7285714 L4.00223214,19.353125 C3.88928571,19.6723214 4.00223214,20.0308036 4.27232143,20.2370536 C4.41473214,20.3401786 4.54732143,20.4285714 4.71428571,20.4285714 C4.87633929,20.4285714 5.06785714,20.3450893 5.20535714,20.2517857 L11,16.121875 L16.7946429,20.2517857 C16.9321429,20.35 17.1236607,20.4285714 17.2857143,20.4285714 C17.4526786,20.4285714 17.5852679,20.3450893 17.7227679,20.2370536 C17.9977679,20.0308036 18.1058036,19.6772321 17.9928571,19.353125 L15.7142857,12.7285714 L21.6022321,8.50535714 L21.7446429,8.38258929 C21.8723214,8.24508929 22,8.05848214 22,7.85714286 C22,7.425 21.5973214,7.07142857 21.1651786,7.07142857 Z" id="path-1"></path>
    </defs>
    <g id="00-Стиль-и-компоненты" stroke="none" stroke-width="1" fill="none" fill-rule="evenodd">
        <g id="Иконки,-контролы" transform="translate(-702.000000, -65.000000)">
            <g id="ico/main" transform="translate(702.000000, 65.000000)">
                <mask id="mask-2" fill="white">
                    <use xlink:href="#path-1"></use>
                </mask>
                <use id="Shape" fill="#000000" fill-rule="nonzero" xlink:href="#path-1"></use>
                <g id="colors/pure-black" mask="url(#mask-2)">
                    <g transform="translate(-1.000000, -2.000000)">
                        <rect id="Background" fill="none" x="0" y="0" width="24" height="24"></rect>
                        <rect id="Black-Color-Copy-9" fill="#000000" fill-rule="evenodd" x="0" y="0" width="24" height="24"></rect>
                    </g>
                </g>
            </g>
        </g>
    </g>
</svg>