<?xml version="1.0" encoding="UTF-8"?>
<svg width="20px" height="19px" viewBox="0 0 20 19" version="1.1" xmlns="http://www.w3.org/2000/svg" xmlns:xlink="http://www.w3.org/1999/xlink">
    <!-- Generator: sketchtool 51.3 (57544) - http://www.bohemiancoding.com/sketch -->
    <title>73F2CC0B-32F3-485E-A24E-3CE608305E89</title>
    <desc>Created with sketchtool.</desc>
    <defs>
        <path d="M9.47115385,5.86538462 L9.47115385,12.5961538 C9.47115385,13.0192308 9.81730769,13.3653846 10.2403846,13.3653846 L19.2307692,13.3653846 C19.6538462,13.3653846 20,13.0192308 20,12.5961538 L20,5.86538462 C20,5.44230769 19.6538462,5.09615385 19.2307692,5.09615385 L10.2403846,5.09615385 C9.81730769,5.09615385 9.47115385,5.44230769 9.47115385,5.86538462 Z M13.1778846,10.7644231 C12.25,10.8221154 11.4855769,10.0576923 11.5432692,9.12980769 C11.5913462,8.36538462 12.2115385,7.74519231 12.9807692,7.69230769 C13.9086538,7.63461538 14.6730769,8.39903846 14.6153846,9.32692308 C14.5625,10.0961538 13.9423077,10.7163462 13.1778846,10.7644231 Z M7.4375,13.3317308 C7.4375,14.4615385 8.35096154,15.3846154 9.48557692,15.3846154 L18.9567308,15.3846154 L18.9567308,16.4086538 C18.9567308,17.5384615 18.0528846,18.4615385 16.9230769,18.4615385 L2.11538462,18.4615385 C0.975961538,18.4615385 0,17.5721154 0,16.4423077 L0,2.01923077 C0,0.889423077 0.975961538,0 2.11538462,0 L16.9278846,0 C18.0528846,0 18.9615385,0.923076923 18.9615385,2.05288462 L18.9615385,3.07692308 L9.49038462,3.07692308 C8.35096154,3.07692308 7.4375,4 7.4375,5.12980769 L7.4375,13.3317308 Z" id="path-1"></path>
    </defs>
    <g id="00-Стиль-и-компоненты" stroke="none" stroke-width="1" fill="none" fill-rule="evenodd">
        <g id="Иконки,-контролы" transform="translate(-757.000000, -66.000000)">
            <g id="ico/money" transform="translate(757.000000, 66.000000)">
                <mask id="mask-2" fill="white">
                    <use xlink:href="#path-1"></use>
                </mask>
                <use id="Shape" fill="#000000" fill-rule="nonzero" xlink:href="#path-1"></use>
                <g id="colors/pure-black" mask="url(#mask-2)">
                    <g transform="translate(-2.000000, -3.000000)">
                        <rect id="Background" fill="none" x="0" y="0" width="24" height="24"></rect>
                        <rect id="Black-Color-Copy-9" fill="#000000" fill-rule="evenodd" x="0" y="0" width="24" height="24"></rect>
                    </g>
                </g>
            </g>
        </g>
    </g>
</svg>