<?xml version="1.0" encoding="UTF-8"?>
<svg width="20px" height="24px" viewBox="0 0 20 24" version="1.1" xmlns="http://www.w3.org/2000/svg" xmlns:xlink="http://www.w3.org/1999/xlink">
    <!-- Generator: sketchtool 51.3 (57544) - http://www.bohemiancoding.com/sketch -->
    <title>1FDA75C7-FCE3-41C6-BAA4-87221A6C4782</title>
    <desc>Created with sketchtool.</desc>
    <defs>
        <path d="M9.56090572,23.9462898 C11.4222524,23.9462898 12.4397087,22.6295816 12.4397087,20.77422 L6.67611769,20.77422 C6.67611769,22.6295816 7.69357405,23.9462898 9.56090572,23.9462898 Z M18.9035491,17.733821 C17.9818533,16.5188584 16.168387,15.8066389 16.168387,10.3662399 C16.168387,4.78220004 13.7025516,2.53781102 11.4042972,1.99915765 C11.1888359,1.94529231 11.0332249,1.87347186 11.0332249,1.64604044 L11.0332249,1.47247436 C11.0332249,0.670479345 10.3748708,-0.00582988187 9.57287579,0.000155155533 C8.77088078,-0.0118149193 8.11252667,0.670479345 8.11252667,1.47247436 L8.11252667,1.64604044 C8.11252667,1.86748683 7.95691569,1.94529231 7.74145435,1.99915765 C5.43721494,2.54379605 2.97736457,4.78220004 2.97736457,10.3662399 C2.97736457,15.8066389 1.16389824,16.5128734 0.242202476,17.733821 C-0.350316227,18.5178609 0.212277289,19.6370629 1.19382342,19.6370629 L17.9579132,19.6370629 C18.9334743,19.6370629 19.4960678,18.5118759 18.9035491,17.733821 Z" id="path-1"></path>
    </defs>
    <g id="00-Стиль-и-компоненты" stroke="none" stroke-width="1" fill="none" fill-rule="evenodd">
        <g id="Иконки,-контролы" transform="translate(-810.000000, -63.000000)">
            <g id="ico/notifications-filled" transform="translate(810.000000, 63.000000)">
                <mask id="mask-2" fill="white">
                    <use xlink:href="#path-1"></use>
                </mask>
                <use id="Shape" fill="#000000" fill-rule="nonzero" xlink:href="#path-1"></use>
                <g id="colors/pure-black" mask="url(#mask-2)">
                    <g transform="translate(-2.000000, 0.000000)">
                        <rect id="Background" fill="none" x="0" y="0" width="24" height="24"></rect>
                        <rect id="Black-Color-Copy-9" fill="#000000" fill-rule="evenodd" x="0" y="0" width="24" height="24"></rect>
                    </g>
                </g>
            </g>
        </g>
    </g>
</svg>