<?xml version="1.0" encoding="UTF-8"?>
<svg width="20px" height="24px" viewBox="0 0 20 24" version="1.1" xmlns="http://www.w3.org/2000/svg" xmlns:xlink="http://www.w3.org/1999/xlink">
        <path d="M11.5718783,20.7740648 C11.206791,20.7740648 10.889584,21.0254364 10.8117785,21.3845387 C10.7519282,21.6538653 10.6501825,21.8753117 10.5125267,22.0369077 C10.4347212,22.1266833 10.2072898,22.3900249 9.54893564,22.3900249 C8.89058153,22.3900249 8.66315011,22.1206983 8.58534462,22.0369077 C8.44768876,21.8753117 8.34594312,21.6538653 8.28609275,21.3845387 C8.20828726,21.0254364 7.89108028,20.7740648 7.525993,20.7740648 C7.02324986,20.7740648 6.65816258,21.2408978 6.76589325,21.7256858 C7.06514512,23.0603491 8.0227511,23.9461347 9.54893564,23.9461347 C11.0751202,23.9461347 12.0327262,23.0663342 12.331978,21.7256858 C12.4397087,21.2408978 12.0686364,20.7740648 11.5718783,20.7740648 Z M18.891579,17.7336658 C17.9698833,16.5187032 16.1564169,15.8064838 16.1564169,10.3660848 C16.1564169,4.78204489 13.6905815,2.53765586 11.3923272,1.99900249 C11.1768658,1.94513716 11.0212548,1.87331671 11.0212548,1.64588529 L11.0212548,1.4723192 C11.0212548,0.676309227 10.3748708,0 9.58484587,0 L9.54893564,0 C8.75891071,0 8.11252667,0.676309227 8.11252667,1.4723192 L8.11252667,1.64588529 C8.11252667,1.86733167 7.95691569,1.94513716 7.74145435,1.99900249 C5.43721494,2.5436409 2.97736457,4.78204489 2.97736457,10.3660848 C2.97736457,15.8064838 1.16389824,16.5127182 0.242202476,17.7336658 C-0.350316227,18.5177057 0.212277289,19.6369077 1.19382342,19.6369077 L17.9579132,19.6369077 C18.9215042,19.6369077 19.4781127,18.5117207 18.891579,17.7336658 Z M16.5574144,18.080798 L2.60030721,18.080798 C2.37287579,18.080798 2.25317504,17.8174564 2.40280098,17.6438903 C2.8217536,17.1650873 3.28260148,16.5366584 3.65965884,15.6448878 C4.23422243,14.2922693 4.51551918,12.5625935 4.51551918,10.3660848 C4.51551918,8.13366584 4.9344718,6.38603491 5.766392,5.17107232 C6.50853664,4.08179551 7.43621744,3.66882793 8.08260148,3.519202 C8.58534462,3.39950125 8.94444687,3.17206983 9.19581844,2.89077307 C9.38733963,2.67531172 9.71651669,2.66334165 9.90803789,2.87880299 C10.2132748,3.21995012 10.6262424,3.4234414 11.0332249,3.519202 C11.679609,3.66882793 12.6072898,4.08179551 13.3494344,5.17107232 C14.1813546,6.38603491 14.6003072,8.13366584 14.6003072,10.3660848 C14.6003072,12.5625935 14.881604,14.2922693 15.4561676,15.6448878 C15.845195,16.5546135 16.3180129,17.1950125 16.7429506,17.6738155 C16.8746214,17.8354115 16.7668908,18.080798 16.5574144,18.080798 Z" id="path-1" fill="white"></path>
</svg>