<?xml version="1.0" encoding="UTF-8"?>
<svg width="24px" height="17px" viewBox="0 0 24 17" version="1.1" xmlns="http://www.w3.org/2000/svg" xmlns:xlink="http://www.w3.org/1999/xlink">
        <path d="M8.45426656,3.30721083 C8.26574086,3.11143413 8.00470526,3.0026693 7.7291677,3.0026693 C7.46088112,3.0026693 7.20709652,3.10418314 7.01857081,3.29995984 C5.58287506,4.71390262 4.78526631,6.60641065 4.78526631,8.6149345 C4.78526631,10.5799524 5.54662012,12.4362055 6.92430796,13.8428973 C7.12008465,14.038674 7.37386925,14.1474388 7.64940682,14.1474388 C7.9176934,14.1474388 8.171478,14.045925 8.36000371,13.8573993 C8.5557804,13.6688736 8.66454523,13.415089 8.66454523,13.1395514 C8.66454523,12.8640138 8.56303139,12.6102292 8.3672547,12.4144525 C7.36661826,11.3993141 6.81554313,10.0506303 6.81554313,8.60768351 C6.81554313,7.13573282 7.39562222,5.76529597 8.43976458,4.73565559 C8.83131797,4.35860418 8.83856896,3.71326619 8.45426656,3.30721083 Z M17.0539391,3.29270885 C16.8654134,3.10418314 16.6188798,3.0026693 16.3433422,3.0026693 C16.0678046,3.0026693 15.81402,3.11143413 15.6182433,3.29995984 C15.2266899,3.69151322 15.2266899,4.33685121 15.6254943,4.73565559 C16.6768877,5.77254696 17.2497158,7.1502348 17.2497158,8.6149345 C17.2497158,10.0506303 16.6986406,11.4065651 15.6907532,12.4217035 C15.5022275,12.6102292 15.3934627,12.8712648 15.4007137,13.1395514 C15.4007137,13.407838 15.5094785,13.6616226 15.6980042,13.8501483 C15.8865299,14.038674 16.1475655,14.1474388 16.4086011,14.1474388 C16.6768877,14.1474388 16.9379233,14.038674 17.126449,13.8428973 C18.5113878,12.4362055 19.2727416,10.5799524 19.2727416,8.6149345 C19.2799926,6.59915966 18.4896348,4.71390262 17.0539391,3.29270885 Z M12,5.81605289 C10.4772924,5.81605289 9.24462432,7.04872096 9.24462432,8.57142857 C9.24462432,10.0941362 10.4772924,11.3268043 12,11.3268043 C13.5227076,11.3268043 14.7553757,10.0941362 14.7553757,8.57142857 C14.7553757,7.04872096 13.5154566,5.81605289 12,5.81605289 Z M4.98104301,15.2205851 C3.23355475,13.4585949 2.27642425,11.1165256 2.27642425,8.62943648 C2.27642425,6.09159046 3.27706068,3.7060152 5.08980783,1.92952299 C5.48861221,1.54522059 5.4958632,0.8998826 5.10430981,0.493827237 C4.91578411,0.298050544 4.65474852,0.189285714 4.37921095,0.189285714 C4.11092437,0.189285714 3.85713977,0.290799555 3.66861406,0.47932526 C1.46431352,2.64011987 0.253398418,5.53326434 0.253398418,8.62943648 C0.253398418,11.6458478 1.42080759,14.4954863 3.53809627,16.6490299 C3.73387296,16.8448066 3.98765756,16.9535714 4.25594414,16.9535714 C4.52423072,16.9535714 4.77801532,16.8448066 4.96654103,16.6490299 C5.15506673,16.4605042 5.26383156,16.2067196 5.26383156,15.938433 C5.27833354,15.6701464 5.1768197,15.4163618 4.98104301,15.2205851 Z M20.3386369,0.486576248 C20.1501112,0.298050544 19.9035776,0.196536703 19.62804,0.196536703 C19.3525025,0.196536703 19.0987179,0.305301532 18.9029412,0.493827237 C18.5113878,0.885380623 18.5113878,1.53071861 18.9101922,1.92952299 C20.7229393,3.7060152 21.7163248,6.02633156 21.7163248,8.56417758 C21.7163248,11.0440157 20.7664453,13.4513439 19.026208,15.2205851 C18.6346546,15.6121385 18.6419056,16.2574765 19.033459,16.6490299 C19.2219847,16.8375556 19.4830203,16.9463204 19.7440559,16.9463204 C20.0195934,16.9463204 20.280629,16.8375556 20.4619037,16.6490299 C22.5864434,14.4954863 23.7466016,11.5878398 23.7466016,8.57142857 C23.7466016,5.4897584 22.5356865,2.66187284 20.3386369,0.486576248 Z" id="path-1"></path>
</svg>