<?xml version="1.0" encoding="UTF-8"?>
<svg width="20px" height="20px" viewBox="0 0 20 20" version="1.1" xmlns="http://www.w3.org/2000/svg" xmlns:xlink="http://www.w3.org/1999/xlink">
    <!-- Generator: sketchtool 51.3 (57544) - http://www.bohemiancoding.com/sketch -->
    <title>CF13FF5D-1174-462C-97F5-B307EA06E5DC</title>
    <desc>Created with sketchtool.</desc>
    <defs>
        <path d="M16.5758929,0 L11.2991071,0 C11.1339286,0 10.9776786,0.0669642857 10.8616071,0.183035714 L0.361607143,10.7232143 C-0.120535714,11.2053571 -0.120535714,11.9910714 0.361607143,12.4732143 L5.33928571,17.4955357 C5.82142857,17.9776786 6.5625,18.2142857 7.27678571,17.5892857 L17.6294643,7.21875 C17.7455357,7.10267857 17.8125,6.94642857 17.8125,6.78125 L17.8125,1.23660714 C17.8125,0.553571429 17.2589286,0 16.5758929,0 Z M14.5267857,4.79910714 C13.6517857,4.89285714 12.9196429,4.15625 13.0133929,3.28571429 C13.0803571,2.64732143 13.59375,2.13839286 14.2321429,2.06696429 C15.1071429,1.97321429 15.8392857,2.70982143 15.7455357,3.58035714 C15.6785714,4.21875 15.1651786,4.73214286 14.5267857,4.79910714 Z M18.9285714,2.15625 C19.53125,2.23660714 20,2.75446429 20,3.37946429 L20,8.65178571 C20,8.81696429 19.9330357,8.97321429 19.8169643,9.08928571 L9.31696429,19.6339286 C8.83482143,20.1160714 8.04910714,20.1160714 7.56696429,19.6339286 L7.17410714,19.2410714 L18.7455357,7.66964286 C18.8616071,7.55357143 18.9285714,7.39732143 18.9285714,7.23214286 L18.9285714,2.15625 Z" id="path-1"></path>
    </defs>
    <g id="00-Стиль-и-компоненты" stroke="none" stroke-width="1" fill="none" fill-rule="evenodd">
        <g id="Иконки,-контролы" transform="translate(-1078.000000, -65.000000)">
            <g id="ico/tags" transform="translate(1078.000000, 65.000000)">
                <mask id="mask-2" fill="white">
                    <use xlink:href="#path-1"></use>
                </mask>
                <use id="Shape" fill="#000000" fill-rule="nonzero" xlink:href="#path-1"></use>
                <g id="colors/pure-black" mask="url(#mask-2)">
                    <g transform="translate(-2.000000, -2.000000)">
                        <rect id="Background" fill="none" x="0" y="0" width="24" height="24"></rect>
                        <rect id="Black-Color-Copy-9" fill="#000000" fill-rule="evenodd" x="0" y="0" width="24" height="24"></rect>
                    </g>
                </g>
            </g>
        </g>
    </g>
</svg>