<?xml version="1.0" encoding="UTF-8"?>
<svg width="19px" height="20px" viewBox="0 0 19 20" version="1.1" xmlns="http://www.w3.org/2000/svg" xmlns:xlink="http://www.w3.org/1999/xlink">
    <!-- Generator: sketchtool 51.3 (57544) - http://www.bohemiancoding.com/sketch -->
    <title>70690E34-2BFB-4139-BD84-EDA02DF0E09E</title>
    <desc>Created with sketchtool.</desc>
    <defs>
        <path d="M15.4166667,20 L17.9166667,20 C18.1458333,20 18.3333333,19.8125 18.3333333,19.5833333 L18.3333333,0.416666667 C18.3333333,0.1875 18.1458333,0 17.9166667,0 L15.4166667,0 C15.1875,0 15,0.1875 15,0.416666667 L15,19.5833333 C15,19.8125 15.1875,20 15.4166667,20 Z M10,3.75520833 L10,19.578125 C10,19.8125 10.1875,20 10.421875,20 L12.9114583,20 C13.1458333,20 13.3333333,19.8125 13.3333333,19.578125 L13.3333333,3.75520833 C13.3333333,3.52083333 13.1458333,3.33333333 12.9114583,3.33333333 L10.421875,3.33333333 C10.1875,3.33333333 10,3.52083333 10,3.75520833 Z M5.421875,20 L7.91145833,20 C8.14583333,20 8.33333333,19.8125 8.33333333,19.578125 L8.33333333,8.75520833 C8.33333333,8.52083333 8.14583333,8.33333333 7.91145833,8.33333333 L5.421875,8.33333333 C5.1875,8.33333333 5,8.52083333 5,8.75520833 L5,19.578125 C5,19.8125 5.1875,20 5.421875,20 Z M0.416666667,20 L2.91666667,20 C3.14583333,20 3.33333333,19.8125 3.33333333,19.5833333 L3.33333333,12.0833333 C3.33333333,11.8541667 3.14583333,11.6666667 2.91666667,11.6666667 L0.416666667,11.6666667 C0.1875,11.6666667 0,11.8541667 0,12.0833333 L0,19.5833333 C0,19.8125 0.1875,20 0.416666667,20 Z" id="path-1"></path>
    </defs>
    <g id="00-Стиль-и-компоненты" stroke="none" stroke-width="1" fill="none" fill-rule="evenodd">
        <g id="Иконки,-контролы" transform="translate(-1132.000000, -65.000000)">
            <g id="ico/top" transform="translate(1132.000000, 65.000000)">
                <mask id="mask-2" fill="white">
                    <use xlink:href="#path-1"></use>
                </mask>
                <use id="Shape" fill="#000000" fill-rule="nonzero" xlink:href="#path-1"></use>
                <g id="colors/pure-black" mask="url(#mask-2)">
                    <g transform="translate(-3.000000, -2.000000)">
                        <rect id="Background" fill="none" x="0" y="0" width="24" height="24"></rect>
                        <rect id="Black-Color-Copy-9" fill="#000000" fill-rule="evenodd" x="0" y="0" width="24" height="24"></rect>
                    </g>
                </g>
            </g>
        </g>
    </g>
</svg>