<?xml version="1.0" encoding="UTF-8"?>
<svg width="20px" height="20px" viewBox="0 0 20 20" version="1.1" xmlns="http://www.w3.org/2000/svg" xmlns:xlink="http://www.w3.org/1999/xlink">
        <path d="M19.988891,19.4946001 C19.6138947,17.8383664 17.4732907,17.0310827 16.7337146,16.7706686 C15.9212226,16.4842131 14.764984,16.4165054 14.0201996,16.2498404 C13.5931205,16.1560913 12.9733349,15.9217186 12.7650036,15.671721 C12.5566723,15.4217235 12.6816711,13.1040379 12.6816711,13.1040379 C12.6816711,13.1040379 13.067084,12.5050855 13.2754153,11.9738407 C13.4837466,11.4478042 13.712911,9.99990176 13.712911,9.99990176 C13.712911,9.99990176 14.1399901,9.99990176 14.2910303,9.24990913 C14.4524871,8.43220883 14.7076929,8.11450361 14.6764432,7.5051346 C14.6451935,6.90618215 14.3170717,6.921807 14.3170717,6.921807 C14.3170717,6.921807 14.6347769,6.05202388 14.6712349,4.24995825 C14.7181094,2.10935428 13.0410426,0 10.0046141,0 C6.92651933,0 5.28591045,2.10935428 5.33278499,4.24995825 C5.37445124,6.05202388 5.68173989,6.921807 5.68173989,6.921807 C5.68173989,6.921807 5.35361811,6.90618215 5.32236842,7.5051346 C5.29111873,8.11450361 5.54632455,8.43220883 5.7077813,9.24990913 C5.8536132,9.99990176 6.28590062,9.99990176 6.28590062,9.99990176 C6.28590062,9.99990176 6.51506504,11.4478042 6.72339632,11.9738407 C6.93172761,12.5050855 7.31714049,13.1040379 7.31714049,13.1040379 C7.31714049,13.1040379 7.44213926,15.4217235 7.23380798,15.671721 C7.02547669,15.9217186 6.40569111,16.1560913 5.97861197,16.2498404 C5.23382762,16.4165054 4.07758898,16.4842131 3.26509697,16.7706686 C2.5255209,17.0310827 0.384916928,17.8383664 0.00992061258,19.4946001 C-0.0473704912,19.7550143 0.150544231,19.9998035 0.421374904,19.9998035 L19.582645,19.9998035 C19.8482674,19.9998035 20.0461821,19.7550143 19.988891,19.4946001 Z" id="path-1"></path>
</svg>