<?xml version="1.0" encoding="UTF-8"?>
<svg width="20px" height="20px" viewBox="0 0 20 20" version="1.1" xmlns="http://www.w3.org/2000/svg" xmlns:xlink="http://www.w3.org/1999/xlink">
        <path d="M4.31098879,12.1353273 C5.01885424,13.0944014 5.83191736,13.9423849 6.88251191,14.5422881 C8.07242426,15.2223628 9.35320239,15.4275201 10.7039668,15.3650271 C11.3353711,15.3346173 11.5252508,15.1700549 11.5542056,14.5411969 C11.5738483,14.1103665 11.6235371,13.6807002 11.835533,13.2935931 C12.0441823,12.9136883 12.3604301,12.8420288 12.7250572,13.0784689 C12.9069343,13.197562 13.0598565,13.3470649 13.2047761,13.506753 C13.5603094,13.8949513 13.9044207,14.2967541 14.2726854,14.6722211 C14.7359626,15.1436464 15.285013,15.4215545 15.9743997,15.3650271 L18.6442819,15.3661911 C19.074021,15.3368725 19.297366,14.8100111 19.050668,14.329201 C18.8770846,13.9933105 18.6488652,13.6945956 18.4078418,13.4047563 C17.8622107,12.749126 17.2193844,12.1906907 16.6115514,11.5976261 C16.063374,11.0627621 16.0286718,10.7524798 16.468887,10.1348981 C16.9505702,9.46057082 17.4672465,8.8131613 17.9525672,8.14254428 C18.4055865,7.51586874 18.870246,6.89042997 19.1075591,6.14102381 C19.2592446,5.66275994 19.1248738,5.45185532 18.6360611,5.36717337 C18.5516701,5.35327797 18.4635689,5.35327797 18.3780139,5.35327797 L15.4728556,5.34985868 C15.1147761,5.34418411 14.9178396,5.50045287 14.7916169,5.81793743 C14.6202888,6.24643974 14.4440863,6.6750148 14.2400202,7.08765743 C13.7793621,8.02570646 13.2635588,8.93254539 12.5409249,9.69955725 C12.3811641,9.86833915 12.2038704,10.0829541 11.9376024,9.99485282 C11.6050584,9.87321345 11.5067721,9.32445404 11.5124466,9.13915771 L11.5099004,5.78549057 C11.4453704,5.3072267 11.3384994,5.09297554 10.8624908,5 L7.84507796,5 C7.44320245,5 7.24030042,5.15663251 7.02488525,5.40784108 C6.90215463,5.55392472 6.86381495,5.64770052 7.11895206,5.69629807 C7.61911392,5.79116513 7.90276936,6.11570652 7.97690244,6.61732341 C8.09657753,7.42012867 8.08835669,8.22606221 8.01873416,9.0311955 C7.99938244,9.26618064 7.95871474,9.50007452 7.86581194,9.72029124 C7.72001931,10.0667306 7.48357915,10.1363532 7.17438818,9.92319327 C6.89531605,9.73084011 6.69837959,9.45998882 6.50486242,9.18775526 C5.78106454,8.16466052 5.20415057,7.06204915 4.73272527,5.90341964 C4.59711775,5.56869313 4.36213261,5.36637311 4.00776339,5.36040755 C3.13642685,5.34643939 2.26429006,5.34447512 1.39186227,5.36149881 C0.868347394,5.37059266 0.71207864,5.62580252 0.926329795,6.10152012 C1.87492769,8.21325807 2.93156055,10.2656314 4.31098879,12.1353273" id="path-1" fill="white"></path>
</svg>