<?xml version="1.0" encoding="UTF-8"?>
<svg width="18px" height="12px" viewBox="0 0 18 12" version="1.1" xmlns="http://www.w3.org/2000/svg" xmlns:xlink="http://www.w3.org/1999/xlink">
    <!-- Generator: sketchtool 51.3 (57544) - http://www.bohemiancoding.com/sketch -->
    <title>5BAA17C3-9307-4B18-8502-0E16CD7BF8D1</title>
    <desc>Created with sketchtool.</desc>
    <defs>
        <path d="M16.997558,1.9981685 C17.1400083,2.54761905 17.2417582,3.38196973 17.3028083,4.501221 L17.3333333,6.02747253 L17.3028083,7.55372405 C17.2417582,8.69332504 17.1400083,9.53785104 16.997558,10.0873016 C16.8958081,10.4332518 16.7126579,10.7385021 16.4481074,11.0030525 C16.183557,11.2676029 15.8681319,11.4507531 15.5018315,11.5525031 C14.9727311,11.6949534 13.7313797,11.7967033 11.7777778,11.8577534 L9,11.8882784 L6.22222222,11.8577534 C4.26862027,11.7967033 3.02726887,11.6949534 2.4981685,11.5525031 C2.13186813,11.4507531 1.81644297,11.2676029 1.55189255,11.0030525 C1.28734213,10.7385021 1.10419195,10.4332518 1.002442,10.0873016 C0.859991705,9.53785104 0.758241758,8.69332504 0.697191697,7.55372405 L0.666666667,6.02747253 C0.666666667,5.57977192 0.676841522,5.07102173 0.697191697,4.501221 C0.758241758,3.38196973 0.859991705,2.54761905 1.002442,1.9981685 C1.10419195,1.63186813 1.28734213,1.31644297 1.55189255,1.05189255 C1.81644297,0.787342132 2.13186813,0.604191949 2.4981685,0.502442002 C3.02726887,0.359991705 4.26862027,0.258241758 6.22222222,0.197191697 L9,0.166666667 L11.7777778,0.197191697 C13.7313797,0.258241758 14.9727311,0.359991705 15.5018315,0.502442002 C15.8681319,0.604191949 16.183557,0.787342132 16.4481074,1.05189255 C16.7126579,1.31644297 16.8958081,1.63186813 16.997558,1.9981685 Z M7.29059829,8.53052503 L11.6556777,6.02747253 L7.29059829,3.55494505 L7.29059829,8.53052503 Z" id="path-1"></path>
    </defs>
    <g id="01-home" stroke="none" stroke-width="1" fill="none" fill-rule="evenodd">
        <g id="01.01.-Главная" transform="translate(-1353.000000, -7705.000000)">
            <g id="tying/footer-desktop" transform="translate(63.000000, 7653.000000)">
                <g id="Group-9">
                    <g id="logo">
                        <g id="Group-4" transform="translate(1181.000000, 48.000000)">
                            <g id="ico/youtube" transform="translate(109.000000, 4.000000)">
                                <mask id="mask-2" fill="white">
                                    <use xlink:href="#path-1"></use>
                                </mask>
                                <use id="" fill="#ffffff" xlink:href="#path-1"></use>
                                <g id="colors/pure-black" mask="url(#mask-2)">
                                    <g transform="translate(-1.000000, -4.000000)">
                                        <rect id="Background" fill="none" x="0" y="0" width="20" height="20"></rect>
                                        <rect id="Black-Color-Copy-9" fill="#ffffff" fill-rule="evenodd" x="0" y="0" width="20" height="20"></rect>
                                    </g>
                                </g>
                            </g>
                        </g>
                    </g>
                </g>
            </g>
        </g>
    </g>
</svg>