<?xml version="1.0" encoding="UTF-8"?>
<svg width="20px" height="15px" viewBox="0 0 20 15" version="1.1" xmlns="http://www.w3.org/2000/svg" xmlns:xlink="http://www.w3.org/1999/xlink">
    <!-- Generator: sketchtool 51.3 (57544) - http://www.bohemiancoding.com/sketch -->
    <title>32BA718F-FCF1-4262-B03C-1C86AED007BE</title>
    <desc>Created with sketchtool.</desc>
    <defs>
        <path d="M19.5970696,2.1978022 C19.76801,2.85714286 19.8901099,3.85836367 19.96337,5.2014652 L20,7.03296703 L19.96337,8.86446886 C19.8901099,10.23199 19.76801,11.2454212 19.5970696,11.9047619 C19.4749697,12.3199021 19.2551894,12.6862025 18.9377289,13.003663 C18.6202684,13.3211235 18.2417582,13.5409037 17.8021978,13.6630037 C17.1672774,13.833944 15.6776557,13.956044 13.3333333,14.029304 L10,14.0659341 L6.66666667,14.029304 C4.32234432,13.956044 2.83272265,13.833944 2.1978022,13.6630037 C1.75824176,13.5409037 1.37973157,13.3211235 1.06227106,13.003663 C0.744810559,12.6862025 0.525030339,12.3199021 0.402930403,11.9047619 C0.231990046,11.2454212 0.10989011,10.23199 0.0366300366,8.86446886 L0,7.03296703 C0,6.49572631 0.0122098259,5.88522607 0.0366300366,5.2014652 C0.10989011,3.85836367 0.231990046,2.85714286 0.402930403,2.1978022 C0.525030339,1.75824176 0.744810559,1.37973157 1.06227106,1.06227106 C1.37973157,0.744810559 1.75824176,0.525030339 2.1978022,0.402930403 C2.83272265,0.231990046 4.32234432,0.10989011 6.66666667,0.0366300366 L10,0 L13.3333333,0.0366300366 C15.6776557,0.10989011 17.1672774,0.231990046 17.8021978,0.402930403 C18.2417582,0.525030339 18.6202684,0.744810559 18.9377289,1.06227106 C19.2551894,1.37973157 19.4749697,1.75824176 19.5970696,2.1978022 Z M7.94871795,10.03663 L13.1868132,7.03296703 L7.94871795,4.06593407 L7.94871795,10.03663 Z" id="path-1"></path>
    </defs>
    <g id="00-Стиль-и-компоненты" stroke="none" stroke-width="1" fill="none" fill-rule="evenodd">
        <g id="Иконки,-контролы" transform="translate(-328.000000, -135.000000)">
            <g id="ico/youtube" transform="translate(328.000000, 135.000000)">
                <mask id="mask-2" fill="white">
                    <use xlink:href="#path-1"></use>
                </mask>
                <use id="" fill="#000000" xlink:href="#path-1"></use>
                <g id="colors/pure-black" mask="url(#mask-2)">
                    <g transform="translate(-2.000000, -5.000000)">
                        <rect id="Background" fill="none" x="0" y="0" width="24" height="24"></rect>
                        <rect id="Black-Color-Copy-9" fill="#000000" fill-rule="evenodd" x="0" y="0" width="24" height="24"></rect>
                    </g>
                </g>
            </g>
        </g>
    </g>
</svg>