<?xml version="1.0" encoding="UTF-8"?>
<svg width="535px" height="316px" viewBox="0 0 535 316" version="1.1" xmlns="http://www.w3.org/2000/svg" xmlns:xlink="http://www.w3.org/1999/xlink">
    <!-- Generator: sketchtool 51.3 (57544) - http://www.bohemiancoding.com/sketch -->
    <title>E9989DE0-A543-4EDC-A7D7-B68772B3388E-1186-00000A70A4CBF55D</title>
    <desc>Created with sketchtool.</desc>
    <defs>
        <path d="M47.361,402.8723 C21.197,402.8723 0,381.6823 0,355.5113 L0,276.0583 C0,249.8943 21.197,228.6863 47.361,228.6863 C73.501,228.6863 94.71,249.8943 94.71,276.0583 L94.71,284.4803 C94.71,297.5643 105.298,308.1643 118.4,308.1643 L198.909,308.1643 C225.079,308.1643 251.015,329.3543 251.015,355.5113 C251.015,381.6823 225.079,402.8723 198.909,402.8723 L47.361,402.8723 Z M376.4542,164.3647 C402.6182,164.3647 423.8152,185.5547 423.8152,211.7237 L423.8152,356.0687 C423.8152,382.2327 402.6182,403.4417 376.4542,403.4417 C350.3132,403.4417 329.1052,382.2327 329.1052,356.0687 L329.1052,282.8207 L329.0772,282.8207 C329.0772,282.8097 329.1052,282.7867 329.1052,282.7567 C329.1052,269.6727 318.5182,259.0727 305.4162,259.0727 L224.9052,259.0727 C198.7372,259.0727 172.8002,237.8827 172.8002,211.7237 C172.8002,185.5547 198.7372,164.3647 224.9052,164.3647 L376.4542,164.3647 Z M47.361,0 L371.726,0 C397.89,0 423.831,21.191 423.831,47.361 C423.831,73.518 397.89,94.71 371.726,94.71 L118.4,94.71 C105.298,94.71 94.71,105.308 94.71,118.392 C94.71,118.422 94.74,118.445 94.74,118.456 L94.71,118.456 L94.71,150.711 C94.71,176.875 73.501,198.084 47.361,198.084 C21.197,198.084 0,176.875 0,150.711 L0,47.361 C0,21.191 21.197,0 47.361,0 Z" id="path-1"></path>
    </defs>
    <g id="01-home" stroke="none" stroke-width="1" fill="none" fill-rule="evenodd" opacity="0.100000001">
        <g id="01.01.-1440-Главная" transform="translate(-756.000000, -7708.000000)">
            <g id="tying/footer-desktop" transform="translate(63.000000, 7708.000000)">
                <g id="Group-9">
                    <g id="logo">
                        <g transform="translate(960.597386, 157.937132) rotate(-30.000000) translate(-960.597386, -157.937132) translate(748.597386, -44.062868)">
                            <mask id="mask-2" fill="white">
                                <use xlink:href="#path-1"></use>
                            </mask>
                            <use id="Fill-1" fill="#231F20" xlink:href="#path-1"></use>
                            <g id="colors/white" mask="url(#mask-2)" fill="#000000">
                                <rect id="Black-Color-Copy-9" x="0" y="0" width="424" height="404"></rect>
                            </g>
                        </g>
                    </g>
                </g>
            </g>
        </g>
    </g>
</svg>