<?xml version="1.0" encoding="UTF-8"?>
<svg width="32px" height="30px" viewBox="0 0 32 30" version="1.1" xmlns="http://www.w3.org/2000/svg" xmlns:xlink="http://www.w3.org/1999/xlink">
    <!-- Generator: sketchtool 52.2 (67145) - http://www.bohemiancoding.com/sketch -->
    <title>512E54E9-3D65-44B3-964C-20673D02E7F4</title>
    <desc>Created with sketchtool.</desc>
    <defs>
        <path d="M3.57441509,29.9162599 C1.59977358,29.9162599 0,28.342745 0,26.399354 L0,20.4993787 C0,18.5565074 1.59977358,16.9816559 3.57441509,16.9816559 C5.54724528,16.9816559 7.14792453,18.5565074 7.14792453,20.4993787 L7.14792453,21.1247748 C7.14792453,22.0963589 7.94701887,22.8834876 8.93584906,22.8834876 L15.012,22.8834876 C16.9870943,22.8834876 18.9445283,24.4570025 18.9445283,26.399354 C18.9445283,28.342745 16.9870943,29.9162599 15.012,29.9162599 L3.57441509,29.9162599 Z M28.4116377,12.2052995 C30.3862792,12.2052995 31.9860528,13.7788144 31.9860528,15.7220569 L31.9860528,26.440745 C31.9860528,28.3836163 30.3862792,29.9585421 28.4116377,29.9585421 C26.4387321,29.9585421 24.8381283,28.3836163 24.8381283,26.440745 L24.8381283,21.0015371 L24.8360151,21.0015371 C24.8360151,21.0007203 24.8381283,20.9990124 24.8381283,20.9967847 C24.8381283,20.0252005 24.0391094,19.2380718 23.0502792,19.2380718 L16.9739774,19.2380718 C14.999034,19.2380718 13.0415245,17.6645569 13.0415245,15.7220569 C13.0415245,13.7788144 14.999034,12.2052995 16.9739774,12.2052995 L28.4116377,12.2052995 Z M3.57441509,0 L28.0547925,0 C30.029434,0 31.9872453,1.57358911 31.9872453,3.51690594 C31.9872453,5.45925743 30.029434,7.03292079 28.0547925,7.03292079 L8.93584906,7.03292079 C7.94701887,7.03292079 7.14792453,7.81990099 7.14792453,8.79148515 C7.14792453,8.79371287 7.15018868,8.79542079 7.15018868,8.79623762 L7.14792453,8.79623762 L7.14792453,11.1914109 C7.14792453,13.1342822 5.54724528,14.7092079 3.57441509,14.7092079 C1.59977358,14.7092079 0,13.1342822 0,11.1914109 L0,3.51690594 C0,1.57358911 1.59977358,0 3.57441509,0 Z" id="path-1"></path>
    </defs>
    <g id="01-home" stroke="none" stroke-width="1" fill="none" fill-rule="evenodd">
        <g id="01.03.-360-Главная" transform="translate(-76.000000, -17.000000)">
            <g id="Group">
                <g id="logo" transform="translate(76.000000, 17.000000)">
                    <mask id="mask-2" fill="white">
                        <use xlink:href="#path-1"></use>
                    </mask>
                    <use id="Fill-1" fill="#231F20" fill-rule="evenodd" xlink:href="#path-1"></use>
                    <g id="colors/white" mask="url(#mask-2)" fill="#FFFFFF" fill-rule="evenodd">
                        <rect id="Black-Color-Copy-9" x="0" y="0" width="32" height="30"></rect>
                    </g>
                </g>
            </g>
        </g>
    </g>
</svg>